HIERARCHY
ROOT hip
{
  OFFSET 0 0 0
  CHANNELS 6 Xposition Yposition Zposition Zrotation Yrotation Xrotation
  JOINT abdomen
  {
    OFFSET 0 20.6881 -0.73152
    CHANNELS 3 Zrotation Xrotation Yrotation
    JOINT chest
    {
      OFFSET 0 11.7043 -0.48768
      CHANNELS 3 Zrotation Xrotation Yrotation
      JOINT neck
      {
        OFFSET 0 22.1894 -2.19456
        CHANNELS 3 Zrotation Xrotation Yrotation
        JOINT head
        {
          OFFSET -0.24384 7.07133 1.2192
          CHANNELS 3 Zrotation Xrotation Yrotation
          JOINT leftEye
          {
            OFFSET 4.14528 8.04674 8.04672
            CHANNELS 3 Zrotation Xrotation Yrotation
            End Site
            {
              OFFSET 1 0 0
            }
          }
          JOINT rightEye
          {
            OFFSET -3.6576 8.04674 8.04672
            CHANNELS 3 Zrotation Xrotation Yrotation
            End Site
            {
              OFFSET 1 0 0
            }
          }
        }
      }
      JOINT rCollar
      {
        OFFSET -2.68224 19.2634 -4.8768
        CHANNELS 3 Zrotation Xrotation Yrotation
        JOINT rShldr
        {
          OFFSET -8.77824 -1.95073 1.46304
          CHANNELS 3 Zrotation Xrotation Yrotation
          JOINT rForeArm
          {
            OFFSET -28.1742 -1.7115 0.48768
            CHANNELS 3 Zrotation Xrotation Yrotation
            JOINT rHand
            {
              OFFSET -22.5879 0.773209 7.07136
              CHANNELS 3 Zrotation Xrotation Yrotation
              JOINT rThumb1
              {
                OFFSET -1.2192 -0.487915 3.41376
                CHANNELS 3 Zrotation Xrotation Yrotation
                JOINT rThumb2
                {
                  OFFSET -3.37035 -0.52449 3.41376
                  CHANNELS 3 Zrotation Xrotation Yrotation
                  End Site
                  {
                    OFFSET -1.78271 -1.18214 1.43049
                  }
                }
              }
              JOINT rIndex1
              {
                OFFSET -7.75947 0.938293 5.60832
                CHANNELS 3 Zrotation Xrotation Yrotation
                JOINT rIndex2
                {
                  OFFSET -2.54057 -0.884171 1.56538
                  CHANNELS 3 Zrotation Xrotation Yrotation
                  End Site
                  {
                    OFFSET -1.62519 -0.234802 1.16502
                  }
                }
              }
              JOINT rMid1
              {
                OFFSET -8.24714 1.18213 3.41376
                CHANNELS 3 Zrotation Xrotation Yrotation
                JOINT rMid2
                {
                  OFFSET -3.10165 -0.590103 1.0647
                  CHANNELS 3 Zrotation Xrotation Yrotation
                  End Site
                  {
                    OFFSET -2.48547 -0.328903 0.83742
                  }
                }
              }
              JOINT rRing1
              {
                OFFSET -8.82822 0.546677 1.51678
                CHANNELS 3 Zrotation Xrotation Yrotation
                JOINT rRing2
                {
                  OFFSET -2.60934 -0.819778 -0.0198488
                  CHANNELS 3 Zrotation Xrotation Yrotation
                  End Site
                  {
                    OFFSET -2.33842 -0.294052 0.168128
                  }
                }
              }
              JOINT rPinky1
              {
                OFFSET -8.27202 -0.0477905 -0.4584
                CHANNELS 3 Zrotation Xrotation Yrotation
                JOINT rPinky2
                {
                  OFFSET -1.82734 -0.647385 -0.700984
                  CHANNELS 3 Zrotation Xrotation Yrotation
                  End Site
                  {
                    OFFSET -1.69225 -0.51767 -0.607171
                  }
                }
              }
            }
          }
        }
      }
      JOINT lCollar
      {
        OFFSET 2.68224 19.2634 -4.8768
        CHANNELS 3 Zrotation Xrotation Yrotation
        JOINT lShldr
        {
          OFFSET 8.77824 -1.95073 1.46304
          CHANNELS 3 Zrotation Xrotation Yrotation
          JOINT lForeArm
          {
            OFFSET 28.1742 -1.7115 0.48768
            CHANNELS 3 Zrotation Xrotation Yrotation
            JOINT lHand
            {
              OFFSET 22.5879 0.773209 7.07136
              CHANNELS 3 Zrotation Xrotation Yrotation
              JOINT lThumb1
              {
                OFFSET 1.2192 -0.487915 3.41376
                CHANNELS 3 Zrotation Xrotation Yrotation
                JOINT lThumb2
                {
                  OFFSET 3.37035 -0.52449 3.41376
                  CHANNELS 3 Zrotation Xrotation Yrotation
                  End Site
                  {
                    OFFSET 1.78271 -1.18214 1.43049
                  }
                }
              }
              JOINT lIndex1
              {
                OFFSET 7.75947 0.938293 5.60832
                CHANNELS 3 Zrotation Xrotation Yrotation
                JOINT lIndex2
                {
                  OFFSET 2.54057 -0.884171 1.56538
                  CHANNELS 3 Zrotation Xrotation Yrotation
                  End Site
                  {
                    OFFSET 1.62519 -0.234802 1.16502
                  }
                }
              }
              JOINT lMid1
              {
                OFFSET 8.24714 1.18213 3.41376
                CHANNELS 3 Zrotation Xrotation Yrotation
                JOINT lMid2
                {
                  OFFSET 3.10165 -0.590103 1.0647
                  CHANNELS 3 Zrotation Xrotation Yrotation
                  End Site
                  {
                    OFFSET 2.48547 -0.328903 0.83742
                  }
                }
              }
              JOINT lRing1
              {
                OFFSET 8.82822 0.546677 1.51678
                CHANNELS 3 Zrotation Xrotation Yrotation
                JOINT lRing2
                {
                  OFFSET 2.60934 -0.819778 -0.0198488
                  CHANNELS 3 Zrotation Xrotation Yrotation
                  End Site
                  {
                    OFFSET 2.33842 -0.294052 0.168128
                  }
                }
              }
              JOINT lPinky1
              {
                OFFSET 8.27202 -0.0477905 -0.4584
                CHANNELS 3 Zrotation Xrotation Yrotation
                JOINT lPinky2
                {
                  OFFSET 1.82734 -0.647385 -0.700984
                  CHANNELS 3 Zrotation Xrotation Yrotation
                  End Site
                  {
                    OFFSET 1.69225 -0.51767 -0.607171
                  }
                }
              }
            }
          }
        }
      }
    }
  }
  JOINT rButtock
  {
    OFFSET -8.77824 4.35084 1.2192
    CHANNELS 3 Zrotation Xrotation Yrotation
    JOINT rThigh
    {
      OFFSET 0 -1.70687 -2.19456
      CHANNELS 3 Zrotation Xrotation Yrotation
      JOINT rShin
      {
        OFFSET 0 -36.8199 0.73152
        CHANNELS 3 Zrotation Xrotation Yrotation
        JOINT rFoot
        {
          OFFSET 0.73152 -45.1104 -5.12064
          CHANNELS 3 Zrotation Xrotation Yrotation
          End Site
          {
            OFFSET -1.1221 -3.69964 12.103
          }
        }
      }
    }
  }
  JOINT lButtock
  {
    OFFSET 8.77824 4.35084 1.2192
    CHANNELS 3 Zrotation Xrotation Yrotation
    JOINT lThigh
    {
      OFFSET 0 -1.70687 -2.19456
      CHANNELS 3 Zrotation Xrotation Yrotation
      JOINT lShin
      {
        OFFSET 0 -36.8199 0.73152
        CHANNELS 3 Zrotation Xrotation Yrotation
        JOINT lFoot
        {
          OFFSET -0.73152 -45.1104 -5.12064
          CHANNELS 3 Zrotation Xrotation Yrotation
          End Site
          {
            OFFSET 1.1221 -3.69964 12.103
          }
        }
      }
    }
  }
}
MOTION
Frames:	8
Frame Time:	0.00833333
52.9616 75.9568 79.9258 -171.884 20.0263 -161.45 -1.85553 1.53714 16.6205 5.49258 2.08872 4.49259 -2.33049 8.14849 -4.03788 10.5659 -1.97261 -5.10916 -0.0 0.0 0.0 -0.0 0.0 0.0 -1.35707e-13 1.02376e-13 -5.04102e-13 33.5207 26.6453 19.1769 -19.655 -12.5834 37.8623 -0.00224671 -1.99611 -0.280459 -7.74292e-10 -1.44588e-09 2.07598e-09 -1.35144e-09 -2.47222e-09 3.58689e-09 -7.7429e-10 -1.44588e-09 2.07597e-09 7.73091 5.47488 0.417314 -7.74286e-10 -1.44589e-09 2.07598e-09 2.90554 0.965183 0.102902 -7.74288e-10 -1.44588e-09 2.07598e-09 10.2786 0.731801 0.0259123 -7.743e-10 -1.44588e-09 2.07599e-09 2.22167 -0.733487 -0.20892 -1.35736e-13 1.02373e-13 -5.0436e-13 -38.2731 39.7074 16.7078 13.7155 -6.74645 -24.9458 0.00843633 2.21207 -0.311229 9.07311e-10 -1.23006e-09 -3.49265e-09 1.55777e-09 -2.13466e-09 -6.04219e-09 9.07303e-10 -1.23006e-09 -3.49263e-09 -7.73091 5.47488 -0.417314 9.0731e-10 -1.23007e-09 -3.49265e-09 -2.90554 0.965183 -0.102902 9.07304e-10 -1.23006e-09 -3.49265e-09 -10.2786 0.731801 -0.0259123 9.07318e-10 -1.23006e-09 -3.49265e-09 -2.22167 -0.733487 0.20892 -2.03217e-16 0.0 -3.88251e-19 -13.0688 -4.1261 13.2547 -4.16217 82.0326 6.05289 26.9788 -34.753 37.8425 2.03217e-16 0.0 3.88251e-19 16.8223 -52.8573 11.8846 0.648983 50.5069 -0.857496 1.59284 -12.3738 5.06051
52.6216 75.7268 78.9221 -172.667 18.0522 -162.434 -1.28553 1.68137 15.022 5.86524 2.08824 4.11627 -2.46998 8.506 -4.35158 10.802 -1.28394 -5.57396 -0.0 0.0 0.0 -0.0 0.0 0.0 -1.00251e-13 -2.87663e-13 -8.70028e-14 35.8371 26.714 15.1386 -19.1713 -12.0089 36.6927 0.000524479 -0.787666 -0.110579 9.98682e-10 -3.05433e-09 5.0922e-10 1.72423e-09 -5.2701e-09 8.75375e-10 9.98688e-10 -3.05433e-09 5.09208e-10 7.73091 5.47488 0.417314 9.98684e-10 -3.05434e-09 5.09222e-10 2.90554 0.965183 0.102902 9.98688e-10 -3.05433e-09 5.09224e-10 10.2786 0.731801 0.0259123 9.98673e-10 -3.05433e-09 5.09229e-10 2.22167 -0.733487 -0.20892 -1.00347e-13 -2.87669e-13 -8.73255e-14 -38.1138 41.0185 15.0382 14.2753 -7.19122 -26.0851 0.00683864 2.11773 -0.297859 1.403e-09 -7.92757e-11 -1.48847e-09 2.42091e-09 -1.43345e-10 -2.57889e-09 1.40299e-09 -7.92784e-11 -1.48845e-09 -7.73091 5.47488 -0.417314 1.403e-09 -7.9279e-11 -1.48847e-09 -2.90554 0.965183 -0.102902 1.403e-09 -7.92794e-11 -1.48847e-09 -10.2786 0.731801 -0.0259123 1.40301e-09 -7.92769e-11 -1.48847e-09 -2.22167 -0.733487 0.20892 -2.03217e-16 0.0 -3.88251e-19 -11.6164 -5.27084 14.2917 -2.99528 77.2764 3.76969 103.143 -66.6113 99.5879 2.03217e-16 0.0 3.88251e-19 12.3979 -52.068 7.53734 0.607375 50.284 -1.06024 1.5173 -13.7464 4.02728
52.1138 75.6985 77.7699 -173.789 16.0529 -163.388 -0.934566 2.15899 13.358 6.18489 2.17382 3.70298 -2.58068 8.91069 -4.51662 10.8136 -0.826395 -5.78237 -0.0 0.0 0.0 -0.0 0.0 0.0 -6.66293e-14 -5.3433e-13 1.78857e-13 38.8598 25.7531 11.1797 -18.7381 -11.5029 35.6979 -0.000152165 0.352238 0.0495045 2.10254e-09 -3.97636e-09 -4.32012e-10 3.6398e-09 -6.87545e-09 -7.53333e-10 2.10255e-09 -3.97635e-09 -4.32024e-10 7.73091 5.47488 0.417314 2.10254e-09 -3.97636e-09 -4.32012e-10 2.90554 0.965183 0.102902 2.10255e-09 -3.97636e-09 -4.32008e-10 10.2786 0.731801 0.0259123 2.10253e-09 -3.97636e-09 -4.32002e-10 2.22167 -0.733487 -0.20892 -6.67595e-14 -5.34336e-13 1.78509e-13 -37.6536 41.4941 12.7033 14.6814 -7.51761 -26.9354 0.00616861 2.24196 -0.315249 1.57171e-09 6.64615e-10 -1.48341e-10 2.71642e-09 1.14432e-09 -2.62391e-10 1.5717e-09 6.64613e-10 -1.48322e-10 -7.73091 5.47488 -0.417314 1.57171e-09 6.64613e-10 -1.48335e-10 -2.90554 0.965183 -0.102902 1.5717e-09 6.64612e-10 -1.48331e-10 -10.2786 0.731801 -0.0259123 1.57172e-09 6.64615e-10 -1.48335e-10 -2.22167 -0.733487 0.20892 -2.03217e-16 0.0 -3.88251e-19 -10.3716 -7.80398 14.8951 -2.84451 73.5034 2.87078 163.06 -45.9371 153.909 2.03217e-16 0.0 3.88251e-19 8.37762 -50.8088 3.80516 0.566872 49.7731 -1.18742 1.4003 -14.6059 3.16353
51.5219 75.882 76.7028 -175.191 14.5038 -164.577 -0.659319 2.96168 11.6376 6.41378 2.39753 3.24916 -2.66115 9.37983 -4.52233 10.578 -0.636757 -5.71692 -0.0 0.0 0.0 -0.0 0.0 0.0 -2.99249e-14 -5.77942e-13 2.21916e-13 42.6708 23.2593 7.3935 -18.3675 -11.0798 34.8743 -0.00150218 1.49765 0.210384 2.22309e-09 -3.92152e-09 -4.41282e-10 3.85079e-09 -6.78357e-09 -7.68697e-10 2.2231e-09 -3.92151e-09 -4.41295e-10 7.73091 5.47488 0.417314 2.22309e-09 -3.92152e-09 -4.41283e-10 2.90554 0.965183 0.102902 2.2231e-09 -3.92152e-09 -4.41279e-10 10.2786 0.731801 0.0259123 2.22308e-09 -3.92152e-09 -4.41272e-10 2.22167 -0.733487 -0.20892 -3.00363e-14 -5.77942e-13 2.21606e-13 -37.0429 40.7978 9.75044 14.8642 -7.66586 -27.3245 0.00767983 2.72554 -0.383256 1.22914e-09 8.36301e-10 2.30689e-10 2.12447e-09 1.44231e-09 3.9441e-10 1.22914e-09 8.363e-10 2.30706e-10 -7.73091 5.47488 -0.417314 1.22915e-09 8.363e-10 2.30694e-10 -2.90554 0.965183 -0.102902 1.22914e-09 8.363e-10 2.30698e-10 -10.2786 0.731801 -0.0259123 1.22916e-09 8.36302e-10 2.30693e-10 -2.22167 -0.733487 0.20892 -2.03217e-16 0.0 -3.88251e-19 -9.51088 -12.1788 15.0611 -2.15447 70.398 2.21435 174.11 -33.3914 164.628 2.03217e-16 0.0 3.88251e-19 4.85948 -49.1119 0.763651 0.532162 48.8848 -1.21998 1.29223 -14.7728 2.55462
50.8812 76.3217 75.7074 -176.418 13.4577 -165.646 -0.358278 4.01212 9.78201 6.58635 2.70318 2.74689 -2.73065 9.92445 -4.40121 10.1575 -0.625724 -5.42487 -0.0 0.0 0.0 -0.0 0.0 0.0 1.31847e-14 -5.07899e-13 1.47865e-13 46.8743 19.6592 3.7531 -18.0696 -10.756 34.1956 -0.00641331 2.71118 0.381093 1.78182e-09 -3.25172e-09 6.62818e-11 3.08813e-09 -5.62411e-09 1.10751e-10 1.78183e-09 -3.25172e-09 6.62684e-11 7.73091 5.47488 0.417314 1.78182e-09 -3.25172e-09 6.62791e-11 2.90554 0.965183 0.102902 1.78183e-09 -3.25172e-09 6.62828e-11 10.2786 0.731801 0.0259123 1.78181e-09 -3.25172e-09 6.62923e-11 2.22167 -0.733487 -0.20892 1.3124e-14 -5.07891e-13 1.47632e-13 -36.5785 39.2789 6.45001 14.9262 -7.71739 -27.4559 0.0129643 3.52741 -0.496229 5.45333e-10 7.10369e-10 1.30558e-10 9.40699e-10 1.22575e-09 2.24135e-10 5.45324e-10 7.1037e-10 1.30571e-10 -7.73091 5.47488 -0.417314 5.45335e-10 7.10368e-10 1.30559e-10 -2.90554 0.965183 -0.102902 5.45328e-10 7.1037e-10 1.30565e-10 -10.2786 0.731801 -0.0259123 5.45342e-10 7.10372e-10 1.30557e-10 -2.22167 -0.733487 0.20892 -2.03217e-16 0.0 -3.88251e-19 -8.81175 -17.997 14.97 -1.09269 67.1043 1.63634 178.857 -31.8182 171.671 2.03217e-16 0.0 3.88251e-19 1.68825 -46.9454 -1.92607 0.492087 47.4996 -1.19532 1.22942 -14.4853 2.1569
50.2341 76.9937 74.7959 -177.433 12.2684 -167.023 -0.302171 5.40687 7.83053 6.7702 3.01602 2.20984 -2.79086 10.4986 -4.15125 9.53776 -0.775788 -4.90916 -0.0 0.0 0.0 -0.0 0.0 0.0 4.91447e-14 -3.9144e-13 3.84454e-14 50.8574 15.78 0.385484 -17.8455 -10.5207 33.6777 -0.0154145 3.77916 0.531749 1.16953e-09 -2.349e-09 7.12551e-10 2.02871e-09 -4.0604e-09 1.2302e-09 1.16954e-09 -2.34901e-09 7.12537e-10 7.73091 5.47488 0.417314 1.16953e-09 -2.34901e-09 7.12547e-10 2.90554 0.965183 0.102902 1.16954e-09 -2.34901e-09 7.12551e-10 10.2786 0.731801 0.0259123 1.16953e-09 -2.34901e-09 7.12562e-10 2.22167 -0.733487 -0.20892 4.91365e-14 -3.91424e-13 3.82944e-14 -36.299 37.2396 2.86813 14.9788 -7.7661 -27.5577 0.0218695 4.36152 -0.614065 -1.92596e-10 4.52826e-10 -1.41812e-10 -3.37018e-10 7.81839e-10 -2.43667e-10 -1.92605e-10 4.5283e-10 -1.41802e-10 -7.73091 5.47488 -0.417314 -1.92594e-10 4.52826e-10 -1.41814e-10 -2.90554 0.965183 -0.102902 -1.92601e-10 4.5283e-10 -1.41808e-10 -10.2786 0.731801 -0.0259123 -1.92589e-10 4.52831e-10 -1.41818e-10 -2.22167 -0.733487 0.20892 -2.03217e-16 0.0 -3.88251e-19 -8.19605 -24.5948 14.7294 -0.604366 64.9927 1.40044 179.549 -35.2674 173.445 2.03217e-16 0.0 3.88251e-19 -1.11623 -44.4527 -4.08857 0.452849 45.9085 -1.13567 1.16708 -13.9682 1.82955
49.6594 77.6821 74.1051 -178.269 11.164 -168.704 -0.748756 7.24197 5.82079 7.02999 3.26116 1.65175 -2.84335 11.0563 -3.77028 8.70758 -1.06963 -4.1728 -0.0 0.0 0.0 -0.0 0.0 0.0 6.44003e-14 -2.95801e-13 -2.45996e-14 54.2461 12.4673 -2.68214 -17.694 -10.3614 33.3373 -0.0247673 4.488 0.632054 7.77031e-10 -1.59542e-09 1.1194e-09 1.34938e-09 -2.75576e-09 1.93486e-09 7.7704e-10 -1.59543e-09 1.11938e-09 7.73091 5.47488 0.417314 7.77032e-10 -1.59543e-09 1.11939e-09 2.90554 0.965183 0.102902 7.77047e-10 -1.59543e-09 1.1194e-09 10.2786 0.731801 0.0259123 7.77027e-10 -1.59543e-09 1.11941e-09 2.22167 -0.733487 -0.20892 6.44163e-14 -2.95783e-13 -2.4699e-14 -36.1581 34.9917 -0.995892 15.1309 -7.90417 -27.8585 0.0300472 4.94191 -0.696285 -6.97515e-10 2.29684e-10 -2.79498e-10 -1.21081e-09 3.97754e-10 -4.79442e-10 -6.97524e-10 2.29688e-10 -2.79491e-10 -7.73091 5.47488 -0.417314 -6.97513e-10 2.29686e-10 -2.79501e-10 -2.90554 0.965183 -0.102902 -6.97519e-10 2.29687e-10 -2.79495e-10 -10.2786 0.731801 -0.0259123 -6.97509e-10 2.29688e-10 -2.79507e-10 -2.22167 -0.733487 0.20892 -2.03217e-16 0.0 -3.88251e-19 -7.57479 -31.2977 14.367 -1.55262 65.4342 1.69489 172.819 -36.6494 164.591 2.03217e-16 0.0 3.88251e-19 -3.62373 -41.7829 -5.61585 0.417661 44.4027 -1.06036 1.05583 -13.4457 1.43042
49.1369 78.2313 73.5536 -179.27 10.2759 -170.565 -2.09838 9.84213 3.63158 7.42437 3.44303 1.03491 -2.88061 11.6288 -3.207 7.53087 -1.56567 -3.12676 -0.0 0.0 0.0 -0.0 0.0 0.0 4.26679e-14 -2.27564e-13 -1.07297e-14 57.1916 10.0025 -5.5408 -17.6806 -10.3442 33.3156 -0.0277695 4.60901 0.64927 7.49583e-10 -9.06132e-10 1.2621e-09 1.30168e-09 -1.56364e-09 2.1815e-09 7.49591e-10 -9.06136e-10 1.26209e-09 7.73091 5.47488 0.417314 7.49584e-10 -9.06138e-10 1.2621e-09 2.90554 0.965183 0.102902 7.49598e-10 -9.06137e-10 1.2621e-09 10.2786 0.731801 0.0259123 7.49579e-10 -9.06135e-10 1.26212e-09 2.22167 -0.733487 -0.20892 4.26616e-14 -2.27554e-13 -1.08206e-14 -36.0963 32.3756 -5.27623 15.3139 -8.04901 -28.282 0.0347449 5.23785 -0.738283 -9.5281e-10 -5.50492e-11 -2.12857e-10 -1.65141e-09 -9.07528e-11 -3.62674e-10 -9.52819e-10 -5.50477e-11 -2.12853e-10 -7.73091 5.47488 -0.417314 -9.52808e-10 -5.50423e-11 -2.12859e-10 -2.90554 0.965183 -0.102902 -9.52814e-10 -5.50486e-11 -2.12856e-10 -10.2786 0.731801 -0.0259123 -9.52803e-10 -5.50471e-11 -2.12866e-10 -2.22167 -0.733487 0.20892 -2.03217e-16 0.0 -3.88251e-19 -7.20402 -38.5558 13.3909 -5.94604 71.5116 3.63524 155.524 -27.3123 137.224 2.03217e-16 0.0 3.88251e-19 -6.25448 -38.6474 -6.49034 0.385765 42.9259 -0.963012 0.856109 -12.8606 0.868055
